PathFileType	4	(X/Y/Z)	 s01c0102.trc
DataRate	CameraRate	NumFrames	NumMarkers	Units	OrigDataRate	OrigDataStartFrame	OrigNumFrames
200	200	7	48	mm	200	251	2000
Frame#	Time	racr			lacr			c7			jug			rlel			rdr			llel			ldr			s2			lic			ric			lasi			rasi			rpsi			lpsi			rgt			lgt			rth1			rth2			rth3			rth4			rlfc			rsh1			rsh2			rsh3			rsh4			rlmal			rmmal			rcal			rtoe			rmt5			lth1			lth2			lth4			lth3			llfc			lsh1			lsh2			lsh3			lsh4			llmal			lmmal			lcal			ltoe			lmt5			SBIKE			LBIKE			RBIKE			
		X1	Y1	Z1	X2	Y2	Z2	X3	Y3	Z3	X4	Y4	Z4	X5	Y5	Z5	X6	Y6	Z6	X7	Y7	Z7	X8	Y8	Z8	X9	Y9	Z9	X10	Y10	Z10	X11	Y11	Z11	X12	Y12	Z12	X13	Y13	Z13	X14	Y14	Z14	X15	Y15	Z15	X16	Y16	Z16	X17	Y17	Z17	X18	Y18	Z18	X19	Y19	Z19	X20	Y20	Z20	X21	Y21	Z21	X22	Y22	Z22	X23	Y23	Z23	X24	Y24	Z24	X25	Y25	Z25	X26	Y26	Z26	X27	Y27	Z27	X28	Y28	Z28	X29	Y29	Z29	X30	Y30	Z30	X31	Y31	Z31	X32	Y32	Z32	X33	Y33	Z33	X34	Y34	Z34	X35	Y35	Z35	X36	Y36	Z36	X37	Y37	Z37	X38	Y38	Z38	X39	Y39	Z39	X40	Y40	Z40	X41	Y41	Z41	X42	Y42	Z42	X43	Y43	Z43	X44	Y44	Z44	X45	Y45	Z45	X46	Y46	Z46	X47	Y47	Z47	X48	Y48	Z48	
251	1.2550	491.881605	1310.389690	-141.298017	467.265473	1318.184829	-441.361859	422.816436	1393.621890	-282.850497	435.124183	1224.710414	-283.034829	567.351089	1055.587877	-27.756160	737.781413	855.106552	-65.633538	520.359503	1044.618990	-544.187398	NaN	NaN	NaN	-104.503074	1186.545019	-229.578239	98.541114	1228.723116	-444.614344	69.811505	1176.576752	-89.762841	92.139656	1152.825594	-420.764883	88.302986	1129.952120	-114.241869	-68.481644	1222.347592	-178.219208	-78.759469	1232.840612	-283.132560	14.136901	1059.580448	-55.782516	9.832461	1079.905383	-438.934566	109.329338	966.624790	-50.598765	167.012349	908.108432	-62.613991	224.829187	840.415746	-76.561080	203.750090	944.002577	-81.540422	258.300138	731.807727	-101.872526	185.096368	638.863733	-65.529490	141.223002	566.188732	-68.208556	86.822244	495.948431	-78.625775	176.779648	543.609771	-111.184027	3.319768	394.258124	-97.852061	49.555184	392.902057	-176.055032	-45.763877	379.946710	-157.095194	191.694184	243.574042	-132.773619	82.971351	263.407402	-71.691124	103.357530	989.718966	-434.805464	186.657679	960.261840	-428.128891	205.901190	1010.734657	-420.885027	262.316170	923.946954	-408.561996	349.949364	851.430138	-386.214738	307.599350	745.689597	-420.121813	294.645782	660.025364	-417.367373	279.359062	575.857845	-408.614618	347.438555	653.132507	-387.262405	252.760215	450.782153	-400.380284	278.780496	461.988041	-313.229860	206.459832	403.279678	-359.986596	482.148023	437.491215	-374.646018	382.094305	395.997095	-439.374559	-222.703991	892.685564	-250.221119	-12.105469	84.369022	-453.757463	-20.051563	80.829835	-53.631097	
252	1.2600	491.928550	1310.387126	-141.379260	467.195702	1317.921908	-441.520722	422.821184	1393.623821	-282.995221	435.027654	1224.673022	-282.965199	567.484368	1055.652240	-27.846268	737.783858	855.111789	-65.622515	520.276305	1044.434271	-544.277802	NaN	NaN	NaN	-104.726977	1187.220320	-229.943399	98.902071	1228.415044	-444.711495	69.280663	1177.368726	-89.818096	92.139706	1153.165972	-420.884627	87.890617	1130.662434	-114.226456	-68.784706	1223.034526	-178.597551	-78.861895	1233.426883	-283.487949	13.566269	1060.522752	-55.829112	9.807250	1080.122701	-438.972990	109.082642	967.755799	-50.413195	166.966395	909.477309	-62.338918	225.018197	841.942895	-76.237128	203.653527	945.438730	-81.231597	258.812866	733.482956	-101.463033	185.294747	640.817037	-65.249823	141.118373	568.304760	-67.965753	86.409864	498.373607	-78.414483	176.432548	545.493644	-110.919370	2.552536	397.051481	-97.756965	48.337875	395.389135	-176.018627	-46.583120	382.769727	-157.030952	190.489736	246.014771	-132.890133	81.883960	266.042860	-71.708207	102.978782	989.532619	-434.891335	186.149404	959.644832	-428.086850	205.576644	1010.038812	-420.713264	261.586363	922.994966	-408.359351	348.960165	849.975573	-385.921017	307.369989	743.864460	-420.060567	294.871329	658.241309	-417.314101	280.133340	573.956145	-408.599258	347.699159	651.595492	-387.045532	254.007526	448.706670	-400.435714	279.910143	459.769449	-313.315394	207.795964	401.301571	-360.050222	483.588951	434.568341	-374.532406	383.446261	393.426712	-439.302080	-222.709923	892.682262	-250.213270	-12.095750	84.355044	-453.748081	-20.057135	80.798284	-53.638061	
253	1.2650	491.916912	1310.388274	-141.456279	467.106942	1317.681563	-441.616843	422.839819	1393.620609	-283.146439	434.972580	1224.572360	-282.921590	567.614526	1055.750805	-27.926261	737.748659	855.102953	-65.593464	520.196159	1044.283492	-544.413219	NaN	NaN	NaN	-104.982041	1187.858769	-230.411940	99.262485	1228.094115	-444.808891	68.682684	1178.144086	-89.895374	92.154338	1153.474467	-420.978154	87.353275	1131.455623	-114.243167	-69.115324	1223.793326	-179.002966	-78.859749	1233.915322	-283.913148	12.888726	1061.420505	-56.096640	9.810305	1080.305339	-439.008201	108.833635	968.878819	-50.304071	166.931179	910.750123	-62.046226	225.256526	843.433236	-75.903196	203.535154	946.898256	-80.910570	259.379347	735.259566	-101.038860	185.536950	642.813702	-64.921466	140.980439	570.456148	-67.730368	85.968176	500.782407	-78.233256	175.975897	547.303030	-110.589229	1.763201	399.856867	-97.562824	46.905282	397.876400	-175.971334	-47.431476	385.726245	-156.936491	189.450363	248.545709	-132.959218	80.896743	268.702741	-71.666009	102.382660	989.443362	-434.863263	185.528744	959.007064	-428.049327	205.180318	1009.245706	-420.541626	260.768531	921.965432	-408.151717	347.944030	848.446984	-385.613768	307.085281	742.034014	-420.047472	295.045841	656.328991	-417.261307	280.868423	571.952752	-408.572393	347.887462	650.073828	-386.926152	255.250505	446.509243	-400.523449	281.019391	457.541361	-313.440636	206.402875	401.183823	-362.064367	484.983052	431.540530	-374.450825	384.718681	390.826023	-439.240396	-222.715407	892.680939	-250.208837	-12.100855	84.377481	-453.749831	-20.056351	80.833153	-53.626507	
254	1.2700	491.914526	1310.384240	-141.572750	467.011342	1317.521253	-441.668200	422.846895	1393.626101	-283.279677	434.890428	1224.526977	-282.873214	567.734453	1055.840864	-28.038111	737.740630	855.116783	-65.585726	520.114331	1044.167181	-544.534500	NaN	NaN	NaN	-105.151369	1188.451599	-230.859024	99.621931	1227.760586	-444.906426	68.140147	1179.005230	-89.930885	92.206285	1153.727740	-421.110646	86.824745	1132.207122	-114.301747	-69.426580	1224.472543	-179.450358	-78.913746	1234.382361	-284.359551	12.375840	1062.387553	-56.148527	9.785774	1080.489260	-439.068197	108.577065	970.026207	-50.075786	166.937008	912.059666	-61.743188	225.536705	844.956343	-75.493675	203.425591	948.330645	-80.561837	259.954570	737.016514	-100.611701	185.798470	644.857992	-64.578301	140.938648	572.719710	-67.476794	85.577989	503.272380	-78.075921	175.619435	549.162064	-110.225142	1.072978	402.722115	-97.408964	45.246185	400.141196	-175.822927	-48.213082	388.639621	-156.686680	188.392776	251.070355	-133.081874	79.861257	271.464064	-71.583746	101.829829	989.108777	-434.835561	184.866245	958.293427	-428.072089	204.777749	1008.430755	-420.452596	259.848086	920.834330	-407.893165	346.859893	846.850994	-385.345433	306.707394	740.197915	-420.058996	295.189466	654.378884	-417.181647	281.551741	569.968520	-408.540672	347.966354	648.497529	-386.828119	256.411493	444.219795	-400.525489	282.067599	455.380909	-313.607335	210.496730	396.999965	-359.371723	486.451697	428.473752	-374.313183	385.999219	388.204312	-439.186133	-222.719980	892.680459	-250.206147	-12.111658	84.366069	-453.748074	-20.067664	80.810265	-53.641620	
255	1.2750	491.923886	1310.363508	-141.615802	466.923433	1317.376355	-441.644889	422.865005	1393.630390	-283.395649	434.797125	1224.506237	-282.838934	567.806304	1055.904022	-28.123627	737.695852	855.158277	-65.536057	520.051292	1044.096666	-544.656452	NaN	NaN	NaN	-105.338146	1189.072663	-231.335435	99.979981	1227.414712	-445.003991	67.520896	1179.785719	-90.022958	92.240759	1153.964523	-421.264782	86.333074	1133.019964	-114.311548	-69.717653	1225.202521	-179.959617	-78.985804	1234.893489	-284.906565	11.763903	1063.330431	-56.235721	9.781209	1080.598830	-439.149847	108.351344	971.100911	-49.905198	166.877675	913.459435	-61.387305	225.743936	846.524737	-75.104531	203.330776	949.878150	-80.207124	260.643785	738.853848	-100.137220	186.077053	646.872122	-64.210304	140.911317	574.994812	-67.142305	85.246711	505.785839	-77.855851	175.410053	551.117084	-109.818712	0.397601	405.624375	-97.269253	43.631621	402.520712	-175.712151	-48.989351	391.800557	-156.739242	187.327292	253.687947	-133.145580	78.909813	274.293176	-71.522946	101.309701	988.648139	-434.841768	184.203597	957.423602	-427.968750	204.408530	1007.505794	-420.265017	258.929740	919.663910	-407.611073	345.729761	845.160054	-385.086959	306.276898	738.224854	-420.025129	295.293365	652.343566	-417.120417	282.154874	567.826904	-408.514835	348.033089	646.786411	-386.721593	257.542206	442.012382	-400.522255	283.248286	453.336606	-313.718763	212.064438	394.732711	-358.876639	487.766308	425.350035	-374.261697	387.269949	385.476621	-439.105107	-222.723065	892.680290	-250.204842	-12.118887	84.376501	-453.738586	-20.078844	80.826699	-53.623416	
256	1.2800	491.902422	1310.397268	-141.645432	466.865826	1317.260035	-441.657793	422.895183	1393.640336	-283.504372	434.706114	1224.475426	-282.817409	567.806815	1055.936491	-28.187388	737.645908	855.177128	-65.478973	520.001802	1044.029712	-544.740633	NaN	NaN	NaN	-105.524630	1189.573143	-231.913494	100.336208	1227.056750	-445.101480	66.895475	1180.638282	-90.161279	92.326688	1154.153387	-421.428861	85.863489	1133.838560	-114.359013	-69.976418	1225.717401	-180.521149	-79.022319	1235.280525	-285.443149	11.151907	1064.255120	-56.363624	9.797710	1080.631828	-439.202453	108.109090	972.267561	-49.736054	166.918280	914.770505	-61.056044	226.027016	848.054175	-74.645866	203.305899	951.307992	-79.841229	261.323098	740.629717	-99.612932	186.422425	648.983013	-63.784891	140.964077	577.313926	-66.770516	84.964885	508.352491	-77.664118	175.314637	553.140506	-109.313877	-0.316423	408.650275	-97.139897	52.150446	408.967941	-172.976091	-49.390156	395.384255	-156.324251	186.348136	256.440099	-133.151059	78.000074	277.132016	-71.526205	100.811687	988.180721	-434.915422	183.595290	956.534743	-427.903068	203.958647	1006.445210	-420.200864	258.010020	918.269541	-407.313357	344.555606	843.406687	-384.842663	305.838863	736.210501	-420.000684	295.409622	650.214070	-417.048245	282.678388	565.616920	-408.503224	348.112242	645.005598	-386.603248	258.570693	439.688733	-400.495780	284.422083	451.324541	-313.969001	213.301930	392.647647	-358.881558	489.234333	422.125187	-374.091296	388.483868	382.710311	-439.045589	-222.724660	892.680856	-250.207080	-12.109989	84.363867	-453.737198	-20.070405	80.795551	-53.638381	
257	1.2850	491.940230	1310.404577	-141.698258	466.834713	1317.169280	-441.620172	422.934073	1393.661430	-283.586199	434.613967	1224.451564	-282.794228	567.690110	1055.966769	-28.142949	737.546819	855.210319	-65.394212	519.954410	1043.996739	-544.845499	NaN	NaN	NaN	-105.675611	1190.151327	-232.515858	100.690188	1226.686956	-445.198784	66.366483	1181.418671	-90.242174	92.449489	1154.326055	-421.629103	85.382952	1134.544643	-114.391309	-70.270578	1226.372603	-181.113562	-78.975935	1235.678823	-286.032217	10.607546	1065.207333	-56.426993	9.792538	1080.609828	-439.309758	107.858020	973.393901	-49.533540	166.977131	916.129477	-60.682773	226.392323	849.646159	-74.158127	203.259435	952.802348	-79.424279	262.088653	742.542113	-99.073787	186.899857	651.088777	-63.336329	141.033069	579.630180	-66.450772	84.681140	511.003876	-77.389373	176.447195	556.318693	-109.176820	-0.932645	411.726377	-97.049540	48.113922	411.316410	-174.094267	-50.111278	398.527435	-156.357339	185.339051	259.211207	-133.211083	77.029339	280.118359	-71.502644	100.302704	987.632182	-434.980871	182.880845	955.495012	-427.839510	203.548139	1005.324517	-420.174366	257.065880	916.854715	-407.157857	343.349647	841.561204	-384.598225	305.380307	734.079625	-419.961775	295.440309	648.039280	-417.026396	283.283704	563.330274	-408.499858	348.336359	643.040168	-386.406203	259.710728	437.362698	-400.495222	285.656639	449.102209	-314.185463	214.513199	390.488667	-358.948629	490.568283	418.755463	-374.021434	389.678611	379.831608	-438.992437	-222.723303	892.683031	-250.210526	-12.111984	84.370521	-453.726493	-20.085568	80.812923	-53.618642	
